<svg xmlns="http://www.w3.org/2000/svg" xmlns:xlink="http://www.w3.org/1999/xlink" width="160" height="30" viewBox="0 0 160 30">
  <defs>
    <clipPath id="clip-path">
      <rect id="Rectangle_437" data-name="Rectangle 437" width="160" height="30" fill="none" stroke="#707070" stroke-width="1"/>
    </clipPath>
    <clipPath id="clip-path-2">
      <rect id="Rectangle_7" data-name="Rectangle 7" width="159.394" height="26.719" fill="#1a1c38"/>
    </clipPath>
  </defs>
  <g id="Mask_Group_26" data-name="Mask Group 26" clip-path="url(#clip-path)">
    <g id="LOGO" transform="translate(0 2)">
      <g id="Group_7" data-name="Group 7" clip-path="url(#clip-path-2)">
        <path id="Path_8" data-name="Path 8" d="M2.283,28.5.533,24.026H.505q.049.531.05,1.262V28.5H0V23.454H.9l1.634,4.158h.028l1.648-4.158h.9V28.5h-.6V25.247q0-.558.05-1.214H4.532L2.767,28.5Z" transform="translate(0 -1.845)" fill="#1a1c38"/>
        <path id="Path_9" data-name="Path 9" d="M14.276,28.493l-.642-1.6H11.566l-.635,1.6h-.607l2.04-5.062h.5l2.03,5.062Zm-.829-2.131-.6-1.562q-.117-.3-.24-.728a6.265,6.265,0,0,1-.223.728l-.607,1.562Z" transform="translate(-0.812 -1.843)" fill="#1a1c38"/>
        <path id="Path_10" data-name="Path 10" d="M23.794,28.5h-.706l-1.881-2.444-.54.469V28.5h-.6V23.454h.6v2.5l2.34-2.5h.709l-2.076,2.189Z" transform="translate(-1.578 -1.845)" fill="#1a1c38"/>
        <path id="Path_11" data-name="Path 11" d="M28.892,28.5V23.454h.6V28.5Z" transform="translate(-2.272 -1.845)" fill="#1a1c38"/>
        <path id="Path_12" data-name="Path 12" d="M39.119,28.5h-.685l-2.82-4.231h-.028q.056.745.056,1.366V28.5h-.554V23.454h.677l2.813,4.213h.028c0-.062-.016-.261-.032-.6s-.022-.577-.018-.722V23.453h.561V28.5Z" transform="translate(-2.76 -1.844)" fill="#1a1c38"/>
        <path id="Path_13" data-name="Path 13" d="M47.259,25.848h1.755V28.3a5.777,5.777,0,0,1-.833.193,6.464,6.464,0,0,1-.982.066,2.407,2.407,0,0,1-1.825-.681,2.646,2.646,0,0,1-.653-1.908,2.831,2.831,0,0,1,.323-1.378,2.171,2.171,0,0,1,.93-.9,3.076,3.076,0,0,1,1.422-.312,3.975,3.975,0,0,1,1.539.3l-.233.517a3.513,3.513,0,0,0-1.345-.29,1.951,1.951,0,0,0-1.472.548,2.1,2.1,0,0,0-.53,1.52,2.146,2.146,0,0,0,.51,1.549,1.989,1.989,0,0,0,1.5.527,4.6,4.6,0,0,0,1.048-.121V26.374H47.259Z" transform="translate(-3.517 -1.839)" fill="#1a1c38"/>
        <path id="Path_14" data-name="Path 14" d="M62.314,28.5h-.6v-4.52H60.08v-.521h3.868v.521H62.315V28.5Z" transform="translate(-4.725 -1.845)" fill="#1a1c38"/>
        <path id="Path_15" data-name="Path 15" d="M73.048,28.5h-.6V26.123H69.731V28.5h-.6V23.454h.6V25.6h2.717V23.454h.6Z" transform="translate(-5.437 -1.845)" fill="#1a1c38"/>
        <path id="Path_16" data-name="Path 16" d="M81.805,28.5H78.929V23.454h2.877v.521H79.529V25.6h2.139v.517H79.529v1.855h2.277Z" transform="translate(-6.207 -1.845)" fill="#1a1c38"/>
        <path id="Path_17" data-name="Path 17" d="M97.467,25.926a2.51,2.51,0,0,1-.693,1.908,2.785,2.785,0,0,1-2,.661h-1.43V23.454h1.581a2.564,2.564,0,0,1,1.871.652A2.429,2.429,0,0,1,97.467,25.926Zm-.635.02a2,2,0,0,0-.507-1.486,2.057,2.057,0,0,0-1.5-.5h-.872v4.028h.731a2.256,2.256,0,0,0,1.613-.516A2.012,2.012,0,0,0,96.832,25.947Z" transform="translate(-7.341 -1.845)" fill="#1a1c38"/>
        <path id="Path_18" data-name="Path 18" d="M103.077,28.5V23.454h.6V28.5Z" transform="translate(-8.107 -1.845)" fill="#1a1c38"/>
        <path id="Path_19" data-name="Path 19" d="M109.874,28.5h-.6V23.454h2.877v.521h-2.278V25.82h2.139v.521h-2.139Z" transform="translate(-8.594 -1.845)" fill="#1a1c38"/>
        <path id="Path_20" data-name="Path 20" d="M117.932,28.5h-.6V23.454h2.876v.521h-2.277V25.82h2.139v.521h-2.139Z" transform="translate(-9.228 -1.845)" fill="#1a1c38"/>
        <path id="Path_21" data-name="Path 21" d="M128.268,28.5h-2.876V23.454h2.876v.521h-2.277V25.6h2.138v.517h-2.138v1.855h2.277Z" transform="translate(-9.862 -1.845)" fill="#1a1c38"/>
        <path id="Path_22" data-name="Path 22" d="M134.364,26.4v2.1h-.6V23.454h1.415a2.263,2.263,0,0,1,1.4.356,1.274,1.274,0,0,1,.452,1.069A1.344,1.344,0,0,1,136,26.23l1.4,2.265h-.709l-1.249-2.1Zm0-.5h.822a1.442,1.442,0,0,0,.932-.247.909.909,0,0,0,.3-.739.83.83,0,0,0-.3-.72,1.662,1.662,0,0,0-.968-.22h-.78Z" transform="translate(-10.52 -1.845)" fill="#1a1c38"/>
        <path id="Path_23" data-name="Path 23" d="M145.5,28.5h-2.876V23.454H145.5v.521h-2.277V25.6h2.139v.517h-2.139v1.855H145.5Z" transform="translate(-11.217 -1.845)" fill="#1a1c38"/>
        <path id="Path_24" data-name="Path 24" d="M155.027,28.5h-.685l-2.82-4.231h-.029q.057.745.056,1.366V28.5h-.554V23.454h.677l2.814,4.213h.028q-.007-.093-.032-.6c-.016-.336-.022-.577-.018-.722V23.453h.562V28.5Z" transform="translate(-11.875 -1.844)" fill="#1a1c38"/>
        <path id="Path_25" data-name="Path 25" d="M163.105,23.9a1.707,1.707,0,0,0-1.343.553,2.2,2.2,0,0,0-.492,1.516,2.233,2.233,0,0,0,.475,1.529,1.7,1.7,0,0,0,1.353.54,4.724,4.724,0,0,0,1.232-.189v.514a3.88,3.88,0,0,1-1.323.2,2.273,2.273,0,0,1-1.761-.676,2.742,2.742,0,0,1-.619-1.921,2.968,2.968,0,0,1,.3-1.366,2.1,2.1,0,0,1,.861-.9,2.653,2.653,0,0,1,1.326-.317,3.257,3.257,0,0,1,1.418.29l-.254.5A2.764,2.764,0,0,0,163.105,23.9Z" transform="translate(-12.633 -1.838)" fill="#1a1c38"/>
        <path id="Path_26" data-name="Path 26" d="M172.754,28.5h-2.876V23.454h2.876v.521h-2.277V25.6h2.139v.517h-2.139v1.855h2.277Z" transform="translate(-13.36 -1.845)" fill="#1a1c38"/>
        <path id="Path_27" data-name="Path 27" d="M8.987,8.132a3.966,3.966,0,0,0,2.148-3.566A4.345,4.345,0,0,0,6.744.277H.088V16.591H7.293a4.49,4.49,0,0,0,4.557-4.452A4.285,4.285,0,0,0,8.987,8.132ZM1.352,1.443H6.744a3.124,3.124,0,1,1,0,6.247H1.352ZM7.293,15.427H1.352V8.855H7.293a3.286,3.286,0,1,1,0,6.572Z" transform="translate(-0.007 -0.022)" fill="#1a1c38"/>
        <path id="Path_28" data-name="Path 28" d="M27.4,15.427H19.526V.278H18.262V16.592H27.4Z" transform="translate(-1.436 -0.022)" fill="#1a1c38"/>
        <path id="Path_29" data-name="Path 29" d="M85.662,9.926,79.7.278H78.122V16.592h1.264V2.1l6.18,10.022h.214L91.96,2.1v14.5h1.264V.278h-1.6Z" transform="translate(-6.144 -0.022)" fill="#1a1c38"/>
        <path id="Path_30" data-name="Path 30" d="M101.062,16.592h1.264V9.134h7.707V7.969h-7.707V1.443h7.992V.278h-9.256Z" transform="translate(-7.948 -0.022)" fill="#1a1c38"/>
        <path id="Path_31" data-name="Path 31" d="M124.094,0a8.466,8.466,0,0,0-8.612,8.413,8.615,8.615,0,0,0,17.226,0A8.466,8.466,0,0,0,124.094,0Zm0,15.638a7.226,7.226,0,1,1,7.349-7.224A7.231,7.231,0,0,1,124.094,15.638Z" transform="translate(-9.082)" fill="#1a1c38"/>
        <path id="Path_32" data-name="Path 32" d="M151.213,5.1A4.893,4.893,0,0,0,146.275.278h-6.586V16.592h1.265V9.9h5.272l4.008,6.689h1.456L147.538,9.74A4.838,4.838,0,0,0,151.213,5.1ZM140.955,8.738V1.443h5.321a3.648,3.648,0,1,1,0,7.3h-5.321Z" transform="translate(-10.986 -0.022)" fill="#1a1c38"/>
        <path id="Path_33" data-name="Path 33" d="M163.88.278h-6.274V16.592h6.274a7.863,7.863,0,0,0,7.874-8.158A7.863,7.863,0,0,0,163.88.278Zm0,15.149h-5.009V1.443h5.009c3.937,0,6.633,3.124,6.633,6.992S167.817,15.427,163.88,15.427Z" transform="translate(-12.395 -0.022)" fill="#1a1c38"/>
        <path id="Path_34" data-name="Path 34" d="M60.368.086a8.616,8.616,0,0,0-6.677,3.1l-.165.2c-.056.072-.167.214-.163.214L46.5,12.651a7.314,7.314,0,0,1-6.052,3.108,7.226,7.226,0,1,1,0-14.451,7.52,7.52,0,0,1,6.174,3.28c.006,0,2.262,2.94,2.262,2.94l.768-1.016L47.259,3.38c-.03-.038-.057-.078-.088-.115L47.1,3.19A8.62,8.62,0,0,0,40.449.123a8.466,8.466,0,0,0-8.613,8.413,8.466,8.466,0,0,0,8.613,8.414,8.609,8.609,0,0,0,6.7-3.129l0,0L47.4,13.5c.073-.1.156-.19.226-.292h0s6.846-9.034,6.847-9.033a7.33,7.33,0,0,1,5.9-2.9,7.226,7.226,0,1,1,0,14.451,7.335,7.335,0,0,1-5.742-2.694L51.935,9.5l-.769,1.015,2.414,3.169,0,0c.011.015.025.027.036.041l.043.057,0,0a8.62,8.62,0,0,0,6.707,3.128A8.466,8.466,0,0,0,68.98,8.5,8.465,8.465,0,0,0,60.368.086Z" transform="translate(-2.504 -0.007)" fill="#fff"/>
      </g>
    </g>
  </g>
</svg>
