<svg xmlns="http://www.w3.org/2000/svg" xmlns:xlink="http://www.w3.org/1999/xlink" width="173" height="29" viewBox="0 0 173 29">
  <defs>
    <clipPath id="clip-path">
      <rect id="Rectangle_7" data-name="Rectangle 7" width="173" height="29" fill="#fff"/>
    </clipPath>
  </defs>
  <g id="Group_7" data-name="Group 7" clip-path="url(#clip-path)">
    <path id="Path_8" data-name="Path 8" d="M2.478,28.926l-1.9-4.851H.548q.053.576.054,1.37v3.481H0V23.454H.981l1.773,4.513h.03l1.789-4.513h.973v5.472H4.9V25.4q0-.606.054-1.318h-.03L3,28.926Z" fill="#1a1c38"/>
    <path id="Path_9" data-name="Path 9" d="M14.613,28.926l-.7-1.74H11.672l-.69,1.74h-.659l2.214-5.494h.547l2.2,5.494Zm-.9-2.313-.651-1.7q-.126-.323-.26-.79a6.8,6.8,0,0,1-.242.79l-.659,1.7Z" fill="#1a1c38"/>
    <path id="Path_10" data-name="Path 10" d="M24.112,28.926h-.766L21.3,26.272l-.586.509v2.144h-.651V23.454h.651v2.714l2.54-2.714h.77L21.776,25.83Z" fill="#1a1c38"/>
    <path id="Path_11" data-name="Path 11" d="M28.892,28.926V23.454h.652v5.472Z" fill="#1a1c38"/>
    <path id="Path_12" data-name="Path 12" d="M39.463,28.926H38.72l-3.061-4.592h-.03q.061.808.061,1.482v3.109h-.6V23.454h.735l3.053,4.573h.03c-.005-.067-.017-.284-.035-.65s-.024-.626-.019-.784v-3.14h.609v5.473Z" fill="#1a1c38"/>
    <path id="Path_13" data-name="Path 13" d="M47.475,26.059h1.9V28.72a6.271,6.271,0,0,1-.9.209A7.016,7.016,0,0,1,47.41,29a2.612,2.612,0,0,1-1.981-.739,2.871,2.871,0,0,1-.709-2.071,3.072,3.072,0,0,1,.35-1.5,2.356,2.356,0,0,1,1.01-.98,3.339,3.339,0,0,1,1.544-.338A4.314,4.314,0,0,1,49.3,23.7l-.253.562a3.812,3.812,0,0,0-1.459-.314,2.117,2.117,0,0,0-1.6.6,2.277,2.277,0,0,0-.575,1.65,2.329,2.329,0,0,0,.554,1.681,2.158,2.158,0,0,0,1.626.573,4.987,4.987,0,0,0,1.138-.131V26.63H47.475Z" fill="#1a1c38"/>
    <path id="Path_14" data-name="Path 14" d="M62.5,28.926h-.651V24.019H60.08v-.566h4.2v.566H62.506v4.906Z" fill="#1a1c38"/>
    <path id="Path_15" data-name="Path 15" d="M73.382,28.926h-.651V26.351H69.782v2.575h-.651V23.454h.651v2.328h2.949V23.454h.651Z" fill="#1a1c38"/>
    <path id="Path_16" data-name="Path 16" d="M82.051,28.926H78.929V23.454h3.122v.566H79.58v1.763H81.9v.562H79.58v2.013h2.471Z" fill="#1a1c38"/>
    <path id="Path_17" data-name="Path 17" d="M97.819,26.138a2.724,2.724,0,0,1-.753,2.071,3.023,3.023,0,0,1-2.166.717H93.348V23.454h1.716a2.783,2.783,0,0,1,2.03.707A2.637,2.637,0,0,1,97.819,26.138Zm-.69.022a2.167,2.167,0,0,0-.55-1.613A2.233,2.233,0,0,0,94.945,24H94v4.372h.793a2.448,2.448,0,0,0,1.751-.56A2.184,2.184,0,0,0,97.129,26.159Z" fill="#1a1c38"/>
    <path id="Path_18" data-name="Path 18" d="M103.077,28.926V23.454h.652v5.472Z" fill="#1a1c38"/>
    <path id="Path_19" data-name="Path 19" d="M109.925,28.926h-.651V23.454H112.4v.566h-2.472v2h2.322v.566h-2.322Z" fill="#1a1c38"/>
    <path id="Path_20" data-name="Path 20" d="M117.983,28.926h-.651V23.454h3.122v.566h-2.471v2h2.322v.566h-2.322Z" fill="#1a1c38"/>
    <path id="Path_21" data-name="Path 21" d="M128.514,28.926h-3.122V23.454h3.122v.566h-2.471v1.763h2.321v.562h-2.321v2.013h2.471Z" fill="#1a1c38"/>
    <path id="Path_22" data-name="Path 22" d="M134.415,26.65v2.275h-.651V23.454H135.3a2.457,2.457,0,0,1,1.524.386,1.383,1.383,0,0,1,.491,1.16,1.458,1.458,0,0,1-1.126,1.467l1.521,2.459h-.77l-1.356-2.275Zm0-.547h.892a1.565,1.565,0,0,0,1.012-.268.987.987,0,0,0,.322-.8.9.9,0,0,0-.328-.782,1.8,1.8,0,0,0-1.051-.239h-.847Z" fill="#1a1c38"/>
    <path id="Path_23" data-name="Path 23" d="M145.745,28.926h-3.122V23.454h3.122v.566h-2.471v1.763H145.6v.562h-2.322v2.013h2.471Z" fill="#1a1c38"/>
    <path id="Path_24" data-name="Path 24" d="M155.371,28.926h-.744l-3.061-4.592h-.031q.062.808.061,1.482v3.109h-.6V23.454h.735l3.054,4.573h.03q-.007-.1-.035-.65c-.017-.365-.024-.626-.019-.784v-3.14h.61v5.473Z" fill="#1a1c38"/>
    <path id="Path_25" data-name="Path 25" d="M163.317,23.944a1.853,1.853,0,0,0-1.458.6,2.39,2.39,0,0,0-.534,1.645,2.424,2.424,0,0,0,.516,1.659,1.85,1.85,0,0,0,1.468.586,5.128,5.128,0,0,0,1.337-.205v.558A4.211,4.211,0,0,1,163.21,29a2.467,2.467,0,0,1-1.911-.733,2.976,2.976,0,0,1-.672-2.085,3.222,3.222,0,0,1,.324-1.482,2.283,2.283,0,0,1,.934-.98,2.879,2.879,0,0,1,1.439-.344,3.536,3.536,0,0,1,1.539.314l-.276.547A3,3,0,0,0,163.317,23.944Z" fill="#1a1c38"/>
    <path id="Path_26" data-name="Path 26" d="M173,28.926h-3.122V23.454H173v.566h-2.471v1.763h2.322v.562h-2.322v2.013H173Z" fill="#1a1c38"/>
    <path id="Path_27" data-name="Path 27" d="M9.747,8.8a4.3,4.3,0,0,0,2.331-3.87A4.715,4.715,0,0,0,7.312.277H.088V17.984H7.908a4.873,4.873,0,0,0,4.946-4.832A4.651,4.651,0,0,0,9.747,8.8ZM1.46,1.543H7.312a3.39,3.39,0,1,1,0,6.78H1.46ZM7.908,16.72H1.46V9.587H7.908a3.566,3.566,0,1,1,0,7.133Z" fill="#1a1c38"/>
    <path id="Path_28" data-name="Path 28" d="M28.18,16.72H19.634V.278H18.262V17.985H28.18Z" fill="#1a1c38"/>
    <path id="Path_29" data-name="Path 29" d="M86.305,10.75,79.831.278H78.122V17.985h1.372V2.251L86.2,13.128h.232L93.142,2.251V17.985h1.372V.278H92.779Z" fill="#1a1c38"/>
    <path id="Path_30" data-name="Path 30" d="M101.062,17.985h1.372V9.89H110.8V8.626h-8.365V1.543h8.674V.278H101.062Z" fill="#1a1c38"/>
    <path id="Path_31" data-name="Path 31" d="M124.829,0a9.188,9.188,0,0,0-9.347,9.131,9.351,9.351,0,0,0,18.7,0A9.188,9.188,0,0,0,124.829,0Zm0,16.973A7.843,7.843,0,1,1,132.8,9.132,7.849,7.849,0,0,1,124.829,16.973Z" fill="#1a1c38"/>
    <path id="Path_32" data-name="Path 32" d="M152.2,5.514a5.31,5.31,0,0,0-5.36-5.237h-7.148V17.985h1.373v-7.26h5.722l4.35,7.26h1.58l-4.506-7.437A5.251,5.251,0,0,0,152.2,5.514ZM141.063,9.46V1.543h5.775a3.959,3.959,0,1,1,0,7.918h-5.775Z" fill="#1a1c38"/>
    <path id="Path_33" data-name="Path 33" d="M164.416.278h-6.81V17.985h6.81a8.534,8.534,0,0,0,8.546-8.854A8.534,8.534,0,0,0,164.416.278Zm0,16.442h-5.437V1.543h5.437c4.273,0,7.2,3.39,7.2,7.589S168.689,16.72,164.416,16.72Z" fill="#1a1c38"/>
    <path id="Path_34" data-name="Path 34" d="M62.8.086a9.352,9.352,0,0,0-7.247,3.368l-.179.217c-.061.078-.181.232-.177.232l-7.45,9.819A7.938,7.938,0,0,1,41.183,17.1a7.843,7.843,0,1,1,0-15.684,8.162,8.162,0,0,1,6.7,3.56c.006,0,2.455,3.191,2.455,3.191l.834-1.1-2.6-3.4c-.033-.042-.062-.084-.1-.125l-.075-.081A9.356,9.356,0,0,0,41.184.126a9.189,9.189,0,0,0-9.348,9.131,9.189,9.189,0,0,0,9.348,9.132,9.344,9.344,0,0,0,7.273-3.4l0,0,.267-.353c.079-.107.17-.206.245-.317h0s7.431-9.8,7.431-9.8a7.956,7.956,0,0,1,6.4-3.144,7.843,7.843,0,1,1,0,15.684,7.961,7.961,0,0,1-6.232-2.924l-2.921-3.827-.835,1.1,2.62,3.44-.005,0c.012.016.027.029.04.045l.047.061.005,0a9.356,9.356,0,0,0,7.279,3.4A9.189,9.189,0,0,0,72.15,9.218,9.188,9.188,0,0,0,62.8.086Z" fill="#c27a61"/>
  </g>
</svg>
