<svg width="209" height="209" viewBox="0 0 209 209" fill="none" xmlns="http://www.w3.org/2000/svg">
<g opacity="0.5" clip-path="url(#clip0)">
<path d="M208.076 16.256V18.4234C204.915 18.4234 201.883 19.6794 199.647 21.915C197.411 24.1507 196.155 27.1828 196.155 30.3445C196.155 32.4469 197.412 35.4922 198.897 36.9661L201.455 39.5237C202.456 40.6083 203.115 41.9638 203.35 43.421C203.585 44.8781 203.386 46.3722 202.777 47.7167L202.311 48.627C201.586 49.9241 200.544 51.0155 199.281 51.7985C198.018 52.5815 196.577 53.0304 195.093 53.1028H157.141V91.0551C157.214 92.1366 157.551 93.1836 158.124 94.104C158.697 95.0244 159.487 95.7898 160.425 96.3329L161.335 96.7989C163.047 97.655 165.67 97.2324 167.014 95.8777L169.571 93.3201C171.812 91.2871 174.689 90.0957 177.71 89.9497C179.56 89.9483 181.393 90.3113 183.103 91.018C184.812 91.7247 186.366 92.7612 187.676 94.0685C188.985 95.3757 190.024 96.928 190.733 98.6368C191.442 100.346 191.808 102.177 191.81 104.027C191.811 105.877 191.448 107.71 190.741 109.42C190.035 111.129 188.998 112.683 187.691 113.993C186.384 115.302 184.831 116.341 183.123 117.05C181.414 117.759 179.582 118.125 177.732 118.127C174.702 117.989 171.815 116.797 169.571 114.756L167.014 112.199C166.254 111.519 165.315 111.072 164.309 110.909C163.303 110.745 162.271 110.873 161.335 111.278L160.425 111.744C159.487 112.287 158.697 113.052 158.124 113.972C157.551 114.893 157.214 115.94 157.141 117.021V154.974H195.093C196.577 155.046 198.018 155.495 199.281 156.278C200.544 157.061 201.586 158.152 202.311 159.449L202.777 160.36C203.389 161.704 203.59 163.198 203.355 164.656C203.119 166.114 202.458 167.47 201.455 168.553L198.897 171.11C197.263 172.945 196.297 175.279 196.155 177.732C196.155 180.894 197.411 183.926 199.647 186.161C201.883 188.397 204.915 189.653 208.076 189.653V191.82C204.34 191.82 200.756 190.336 198.114 187.694C195.472 185.052 193.988 181.468 193.988 177.732C194.125 174.702 195.318 171.815 197.358 169.571L199.916 167.014C200.595 166.254 201.043 165.315 201.206 164.309C201.369 163.303 201.241 162.271 200.837 161.335L200.371 160.425C199.828 159.487 199.063 158.697 198.142 158.124C197.222 157.551 196.175 157.214 195.093 157.141H157.141V195.093C157.069 196.577 156.62 198.018 155.837 199.281C155.054 200.544 153.962 201.586 152.665 202.311L151.755 202.777C150.411 203.389 148.916 203.59 147.458 203.355C146.001 203.119 144.645 202.458 143.562 201.455L141.004 198.897C139.169 197.263 136.836 196.297 134.383 196.155C131.221 196.155 128.189 197.411 125.953 199.647C123.718 201.883 122.462 204.915 122.462 208.076H120.294C120.294 204.34 121.778 200.756 124.421 198.114C127.063 195.472 130.646 193.988 134.383 193.988C137.059 193.988 140.657 195.473 142.543 197.358L145.101 199.916C145.862 200.594 146.8 201.041 147.806 201.204C148.812 201.367 149.843 201.24 150.78 200.837L151.69 200.371C152.628 199.828 153.418 199.063 153.991 198.142C154.563 197.222 154.901 196.175 154.974 195.093V157.141H117.021C115.537 157.069 114.096 156.62 112.834 155.837C111.571 155.054 110.528 153.962 109.804 152.665L109.338 151.755C108.726 150.411 108.525 148.916 108.76 147.458C108.995 146.001 109.656 144.645 110.66 143.562L113.217 141.004C114.851 139.169 115.818 136.836 115.959 134.383C115.959 131.221 114.703 128.189 112.468 125.953C110.232 123.718 107.2 122.462 104.038 122.462C100.877 122.462 97.8444 123.718 95.6087 125.953C93.3731 128.189 92.1172 131.221 92.1172 134.383C92.1172 136.485 93.3743 139.53 94.859 141.004L97.4166 143.562C98.4177 144.646 99.077 146.002 99.3121 147.459C99.5473 148.916 99.3478 150.41 98.7388 151.755L98.2728 152.665C97.5482 153.962 96.5055 155.054 95.2429 155.837C93.9802 156.62 92.5391 157.069 91.0551 157.141H53.1028V195.093C53.1755 196.175 53.5131 197.222 54.0857 198.142C54.6583 199.063 55.4485 199.828 56.3865 200.371L57.2969 200.837C59.0092 201.693 61.6318 201.271 62.9756 199.916L65.5332 197.358C67.7734 195.325 70.6504 194.134 73.6721 193.988C75.524 193.985 77.3584 194.347 79.0702 195.054C80.782 195.761 82.3376 196.798 83.6481 198.107C84.9587 199.415 85.9984 200.969 86.7077 202.68C87.4171 204.391 87.7822 206.224 87.7822 208.076H85.6148C85.6148 204.915 84.3588 201.883 82.1232 199.647C79.8876 197.411 76.8554 196.155 73.6937 196.155C71.5913 196.155 68.546 197.412 67.0721 198.897L64.5145 201.455C63.4299 202.456 62.0744 203.115 60.6172 203.35C59.1601 203.585 57.666 203.386 56.3215 202.777L55.4112 202.311C54.1141 201.586 53.0227 200.544 52.2397 199.281C51.4567 198.018 51.0078 196.577 50.9354 195.093V157.141H12.9831C11.9016 157.214 10.8546 157.551 9.9342 158.124C9.01385 158.697 8.24842 159.487 7.70533 160.425L7.23933 161.335C6.38318 163.047 6.80583 165.67 8.1605 167.014L10.7181 169.571C12.7511 171.812 13.9425 174.689 14.0885 177.71C14.0914 179.562 13.729 181.397 13.0223 183.108C12.3156 184.82 11.2783 186.376 9.96975 187.686C8.66123 188.997 7.10716 190.037 5.39645 190.746C3.68574 191.455 1.85195 191.82 0 191.82L0 189.653C3.16166 189.653 6.19382 188.397 8.42945 186.161C10.6651 183.926 11.921 180.894 11.921 177.732C11.921 175.629 10.6639 172.584 9.1792 171.11L6.6216 168.553C5.62052 167.468 4.96122 166.113 4.72608 164.655C4.49093 163.198 4.69036 161.704 5.29945 160.36L5.76545 159.449C6.49 158.152 7.53267 157.061 8.79534 156.278C10.058 155.495 11.4991 155.046 12.9831 154.974H50.9354V117.021C50.8627 115.94 50.5251 114.893 49.9525 113.972C49.3799 113.052 48.5898 112.287 47.6517 111.744L46.7413 111.278C45.0182 110.411 42.4064 110.844 41.0626 112.199L38.505 114.756C36.2611 116.797 33.3745 117.989 30.3445 118.127C26.608 118.127 23.0245 116.642 20.3824 114C17.7403 111.358 16.256 107.775 16.256 104.038C16.256 100.302 17.7403 96.7182 20.3824 94.0761C23.0245 91.434 26.608 89.9497 30.3445 89.9497C33.0213 89.9497 36.6193 91.4344 38.505 93.3201L41.0626 95.8777C41.8233 96.5558 42.7618 97.0027 43.7677 97.1659C44.7736 97.3291 45.8053 97.2017 46.7413 96.7989L47.6517 96.3329C48.5898 95.7898 49.3799 95.0244 49.9525 94.104C50.5251 93.1836 50.8627 92.1366 50.9354 91.0551V53.1028H12.9831C11.4991 53.0304 10.058 52.5815 8.79534 51.7985C7.53267 51.0155 6.49 49.9241 5.76545 48.627L5.29945 47.7167C4.68751 46.3728 4.48654 44.8781 4.72178 43.4203C4.95703 41.9625 5.618 40.6068 6.6216 39.5237L9.1792 36.9661C10.8132 35.1309 11.7794 32.7976 11.921 30.3445C11.921 27.1828 10.6651 24.1507 8.42945 21.915C6.19382 19.6794 3.16166 18.4234 0 18.4234L0 16.256C3.7365 16.256 7.31997 17.7403 9.96208 20.3824C12.6042 23.0245 14.0885 26.608 14.0885 30.3445C14.0885 33.0213 12.6038 36.6193 10.7181 38.505L8.1605 41.0626C7.48239 41.8233 7.03549 42.7618 6.87231 43.7677C6.70914 44.7736 6.83646 45.8053 7.23933 46.7413L7.70533 47.6517C8.24842 48.5898 9.01385 49.3799 9.9342 49.9525C10.8546 50.5251 11.9016 50.8627 12.9831 50.9354H50.9354V12.9831C51.0078 11.4991 51.4567 10.058 52.2397 8.79534C53.0227 7.53267 54.1141 6.49 55.4112 5.76545L56.3215 5.29945C57.6654 4.68751 59.1602 4.48654 60.6179 4.72178C62.0757 4.95703 63.4314 5.618 64.5145 6.6216L67.0721 9.1792C68.9073 10.8132 71.2406 11.7794 73.6937 11.921C76.8554 11.921 79.8876 10.6651 82.1232 8.42945C84.3588 6.19382 85.6148 3.16166 85.6148 0H87.7822C87.7822 3.7365 86.2979 7.31997 83.6558 9.96208C81.0137 12.6042 77.4302 14.0885 73.6937 14.0885C70.6638 13.951 67.7771 12.7588 65.5332 10.7181L62.9756 8.1605C62.2156 7.48121 61.277 7.03354 60.2708 6.87032C59.2646 6.7071 58.2327 6.83514 57.2969 7.23933L56.3865 7.70533C55.4485 8.24842 54.6583 9.01385 54.0857 9.9342C53.5131 10.8546 53.1755 11.9016 53.1028 12.9831V50.9354H91.0551C92.5391 51.0078 93.9802 51.4567 95.2429 52.2397C96.5055 53.0227 97.5482 54.1141 98.2728 55.4112L98.7388 56.3215C99.3507 57.6654 99.5517 59.1602 99.3164 60.6179C99.0812 62.0757 98.4202 63.4314 97.4166 64.5145L94.859 67.0721C93.225 68.9073 92.2588 71.2406 92.1172 73.6937C92.1172 76.8554 93.3731 79.8876 95.6087 82.1232C97.8444 84.3588 100.877 85.6148 104.038 85.6148C107.2 85.6148 110.232 84.3588 112.468 82.1232C114.703 79.8876 115.959 76.8554 115.959 73.6937C115.959 71.5913 114.702 68.546 113.217 67.0721L110.66 64.5145C109.659 63.4299 108.999 62.0744 108.764 60.6172C108.529 59.1601 108.729 57.666 109.338 56.3215L109.804 55.4112C110.528 54.1141 111.571 53.0227 112.834 52.2397C114.096 51.4567 115.537 51.0078 117.021 50.9354H154.974V12.9831C154.901 11.9016 154.563 10.8546 153.991 9.9342C153.418 9.01385 152.628 8.24842 151.69 7.70533L150.78 7.23933C149.056 6.37234 146.445 6.80583 145.101 8.1605L142.543 10.7181C140.299 12.7588 137.413 13.951 134.383 14.0885C130.646 14.0885 127.063 12.6042 124.421 9.96208C121.778 7.31997 120.294 3.7365 120.294 0L122.462 0C122.462 3.16166 123.718 6.19382 125.953 8.42945C128.189 10.6651 131.221 11.921 134.383 11.921C136.485 11.921 139.53 10.6639 141.004 9.1792L143.562 6.6216C144.646 5.62052 146.002 4.96122 147.459 4.72608C148.916 4.49093 150.41 4.69036 151.755 5.29945L152.665 5.76545C153.962 6.49 155.054 7.53267 155.837 8.79534C156.62 10.058 157.069 11.4991 157.141 12.9831V50.9354H195.093C196.175 50.8627 197.222 50.5251 198.142 49.9525C199.063 49.3799 199.828 48.5898 200.371 47.6517L200.837 46.7413C201.704 45.0182 201.271 42.4064 199.916 41.0626L197.358 38.505C195.318 36.2611 194.125 33.3745 193.988 30.3445C193.988 26.608 195.472 23.0245 198.114 20.3824C200.756 17.7403 204.34 16.256 208.076 16.256ZM91.0551 154.974C92.1366 154.901 93.1836 154.563 94.104 153.991C95.0244 153.418 95.7898 152.628 96.3329 151.69L96.7989 150.78C97.6659 149.056 97.2324 146.445 95.8777 145.101L93.3201 142.543C91.2794 140.299 90.0872 137.413 89.9497 134.383C89.9497 130.646 91.434 127.063 94.0761 124.421C96.7182 121.778 100.302 120.294 104.038 120.294C107.775 120.294 111.358 121.778 114 124.421C116.642 127.063 118.127 130.646 118.127 134.383C118.127 137.059 116.642 140.657 114.756 142.543L112.199 145.101C111.521 145.862 111.074 146.8 110.911 147.806C110.747 148.812 110.875 149.843 111.278 150.78L111.744 151.69C112.287 152.628 113.052 153.418 113.972 153.991C114.893 154.563 115.94 154.901 117.021 154.974H154.974V117.021C155.046 115.537 155.495 114.096 156.278 112.834C157.061 111.571 158.152 110.528 159.449 109.804L160.36 109.338C161.704 108.726 163.198 108.525 164.656 108.76C166.114 108.995 167.47 109.656 168.553 110.66L171.11 113.217C172.945 114.851 175.279 115.818 177.732 115.959C180.894 115.959 183.926 114.703 186.161 112.468C188.397 110.232 189.653 107.2 189.653 104.038C189.653 100.877 188.397 97.8444 186.161 95.6087C183.926 93.3731 180.894 92.1172 177.732 92.1172C175.629 92.1172 172.584 93.3743 171.11 94.859L168.553 97.4166C167.468 98.4177 166.113 99.077 164.655 99.3121C163.198 99.5473 161.704 99.3478 160.36 98.7388L159.449 98.2728C158.152 97.5482 157.061 96.5055 156.278 95.2429C155.495 93.9802 155.046 92.5391 154.974 91.0551V53.1028H117.021C115.94 53.1755 114.893 53.5131 113.972 54.0857C113.052 54.6583 112.287 55.4485 111.744 56.3865L111.278 57.2969C110.421 59.0092 110.844 61.6318 112.199 62.9756L114.756 65.5332C116.789 67.7734 117.981 70.6504 118.127 73.6721C118.128 75.5222 117.765 77.3545 117.058 79.0643C116.352 80.7742 115.315 82.3281 114.008 83.6373C111.368 86.2814 107.786 87.7685 104.049 87.7714C102.199 87.7728 100.367 87.4098 98.6568 86.7031C96.9469 85.9964 95.393 84.9599 94.0838 83.6526C91.4397 81.0126 89.9526 77.4302 89.9497 73.6937C90.0872 70.6638 91.2794 67.7771 93.3201 65.5332L95.8777 62.9756C96.557 62.2156 97.0047 61.277 97.1679 60.2708C97.3311 59.2646 97.2031 58.2327 96.7989 57.2969L96.3329 56.3865C95.7898 55.4485 95.0244 54.6583 94.104 54.0857C93.1836 53.5131 92.1366 53.1755 91.0551 53.1028H53.1028V91.0551C53.0304 92.5391 52.5815 93.9802 51.7985 95.2429C51.0155 96.5055 49.9241 97.5482 48.627 98.2728L47.7167 98.7388C46.3728 99.3507 44.8781 99.5517 43.4203 99.3164C41.9625 99.0812 40.6068 98.4202 39.5237 97.4166L36.9661 94.859C35.1309 93.225 32.7976 92.2588 30.3445 92.1172C27.1828 92.1172 24.1507 93.3731 21.915 95.6087C19.6794 97.8444 18.4234 100.877 18.4234 104.038C18.4234 107.2 19.6794 110.232 21.915 112.468C24.1507 114.703 27.1828 115.959 30.3445 115.959C32.4469 115.959 35.4922 114.702 36.9661 113.217L39.5237 110.66C40.6083 109.659 41.9638 108.999 43.421 108.764C44.8781 108.529 46.3722 108.729 47.7167 109.338L48.627 109.804C49.9241 110.528 51.0155 111.571 51.7985 112.834C52.5815 114.096 53.0304 115.537 53.1028 117.021V154.974H91.0551Z" fill="black"/>
</g>
<defs>
<clipPath id="clip0">
<rect width="208.076" height="208.076" fill="white"/>
</clipPath>
</defs>
</svg>
